<mxfile host="app.diagrams.net" modified="2023-07-25T13:46:04.683Z" agent="Mozilla/5.0 (Windows NT 10.0; Win64; x64) AppleWebKit/537.36 (KHTML, like Gecko) Chrome/114.0.0.0 Safari/537.36" etag="hpJV9oAmFS9rvs9hOb-9" version="21.6.5" type="device">
  <diagram id="C5RBs43oDa-KdzZeNtuy" name="Page-1">
    <mxGraphModel dx="2214" dy="491" grid="1" gridSize="10" guides="1" tooltips="1" connect="1" arrows="1" fold="1" page="1" pageScale="1" pageWidth="291" pageHeight="413" math="0" shadow="0">
      <root>
        <mxCell id="WIyWlLk6GJQsqaUBKTNV-0" />
        <mxCell id="WIyWlLk6GJQsqaUBKTNV-1" parent="WIyWlLk6GJQsqaUBKTNV-0" />
        <mxCell id="POBfcUkBsvV8UPlY4-i7-3" value="&lt;div&gt;4-Uma clínica veterinária deseja cadastrar os pets que são atendidos em seu local.&lt;/div&gt;&lt;div&gt;&lt;br&gt;&lt;/div&gt;&lt;div&gt;- a clínica contém um endereço;&lt;/div&gt;&lt;div&gt;- os pets deverão ter nome, data de nascimento, tipo de pet;&lt;/div&gt;&lt;div&gt;- os pets deverão ter raça;&lt;/div&gt;&lt;div&gt;- os pets deverão ter donos;&lt;/div&gt;&lt;div&gt;- a clínica deseja cadastrar seus veterinários e todo atendimento de pet será feito por um veterinário;&lt;/div&gt;" style="text;html=1;align=left;verticalAlign=middle;resizable=0;points=[];autosize=1;strokeColor=none;fillColor=none;fontColor=#5C5C5C;labelBackgroundColor=none;" parent="WIyWlLk6GJQsqaUBKTNV-1" vertex="1">
          <mxGeometry x="-582" y="220" width="560" height="110" as="geometry" />
        </mxCell>
        <mxCell id="zAKUYkVe4AKFvkZDwYAf-0" value="Clínica" style="rounded=0;whiteSpace=wrap;html=1;strokeColor=#006658;fontColor=#5C5C5C;fillColor=#21C0A5;labelBackgroundColor=none;" parent="WIyWlLk6GJQsqaUBKTNV-1" vertex="1">
          <mxGeometry x="-240" y="413" width="120" height="60" as="geometry" />
        </mxCell>
        <mxCell id="7l59M0pH6g9MhCw7kL8R-22" style="edgeStyle=orthogonalEdgeStyle;rounded=0;orthogonalLoop=1;jettySize=auto;html=1;exitX=0.5;exitY=1;exitDx=0;exitDy=0;strokeColor=#006658;fontColor=default;fillColor=#21C0A5;labelBackgroundColor=none;" parent="WIyWlLk6GJQsqaUBKTNV-1" edge="1">
          <mxGeometry relative="1" as="geometry">
            <mxPoint x="379" y="596" as="targetPoint" />
            <mxPoint x="379" y="596" as="sourcePoint" />
          </mxGeometry>
        </mxCell>
        <mxCell id="7l59M0pH6g9MhCw7kL8R-7" value="Pets" style="rounded=0;whiteSpace=wrap;html=1;strokeColor=#006658;fontColor=#5C5C5C;fillColor=#21C0A5;labelBackgroundColor=none;" parent="WIyWlLk6GJQsqaUBKTNV-1" vertex="1">
          <mxGeometry x="-602" y="900" width="120" height="60" as="geometry" />
        </mxCell>
        <mxCell id="7l59M0pH6g9MhCw7kL8R-8" value="Possui&amp;nbsp;" style="rhombus;whiteSpace=wrap;html=1;shadow=0;fontFamily=Helvetica;fontSize=12;align=center;strokeWidth=1;spacing=6;spacingTop=-4;rounded=0;labelBackgroundColor=none;fillColor=#21C0A5;strokeColor=#006658;fontColor=#5C5C5C;" parent="WIyWlLk6GJQsqaUBKTNV-1" vertex="1">
          <mxGeometry x="-410" y="403" width="100" height="80" as="geometry" />
        </mxCell>
        <mxCell id="7l59M0pH6g9MhCw7kL8R-44" value="1" style="text;html=1;align=center;verticalAlign=middle;resizable=0;points=[];autosize=1;strokeColor=none;fillColor=none;fontColor=#5C5C5C;labelBackgroundColor=none;" parent="WIyWlLk6GJQsqaUBKTNV-1" vertex="1">
          <mxGeometry x="110" y="413" width="30" height="30" as="geometry" />
        </mxCell>
        <mxCell id="13TzzeObVVfD70_n9w97-5" value="Nome" style="ellipse;whiteSpace=wrap;html=1;labelBackgroundColor=none;fillColor=#21C0A5;strokeColor=#006658;fontColor=#5C5C5C;" parent="WIyWlLk6GJQsqaUBKTNV-1" vertex="1">
          <mxGeometry x="-700" y="1000" width="61" height="40" as="geometry" />
        </mxCell>
        <mxCell id="13TzzeObVVfD70_n9w97-6" value="Data de Nascimento" style="ellipse;whiteSpace=wrap;html=1;labelBackgroundColor=none;fillColor=#21C0A5;strokeColor=#006658;fontColor=#5C5C5C;" parent="WIyWlLk6GJQsqaUBKTNV-1" vertex="1">
          <mxGeometry x="-440" y="1000" width="80" height="40" as="geometry" />
        </mxCell>
        <mxCell id="13TzzeObVVfD70_n9w97-7" value="Tipo de Pets" style="rounded=0;whiteSpace=wrap;html=1;strokeColor=#006658;fontColor=#5C5C5C;fillColor=#21C0A5;labelBackgroundColor=none;" parent="WIyWlLk6GJQsqaUBKTNV-1" vertex="1">
          <mxGeometry x="-970" y="900" width="120" height="60" as="geometry" />
        </mxCell>
        <mxCell id="13TzzeObVVfD70_n9w97-11" value="Possui&amp;nbsp;" style="rhombus;whiteSpace=wrap;html=1;shadow=0;fontFamily=Helvetica;fontSize=12;align=center;strokeWidth=1;spacing=6;spacingTop=-4;rounded=0;labelBackgroundColor=none;fillColor=#21C0A5;strokeColor=#006658;fontColor=#5C5C5C;" parent="WIyWlLk6GJQsqaUBKTNV-1" vertex="1">
          <mxGeometry x="-777" y="890" width="100" height="80" as="geometry" />
        </mxCell>
        <mxCell id="13TzzeObVVfD70_n9w97-15" value="Possui&amp;nbsp;" style="rhombus;whiteSpace=wrap;html=1;shadow=0;fontFamily=Helvetica;fontSize=12;align=center;strokeWidth=1;spacing=6;spacingTop=-4;rounded=0;labelBackgroundColor=none;fillColor=#21C0A5;strokeColor=#006658;fontColor=#5C5C5C;" parent="WIyWlLk6GJQsqaUBKTNV-1" vertex="1">
          <mxGeometry x="-592" y="530" width="100" height="80" as="geometry" />
        </mxCell>
        <mxCell id="13TzzeObVVfD70_n9w97-16" value="Raça" style="rounded=0;whiteSpace=wrap;html=1;strokeColor=#006658;fontColor=#5C5C5C;fillColor=#21C0A5;labelBackgroundColor=none;" parent="WIyWlLk6GJQsqaUBKTNV-1" vertex="1">
          <mxGeometry x="-602" y="1120" width="120" height="60" as="geometry" />
        </mxCell>
        <mxCell id="13TzzeObVVfD70_n9w97-22" value="Dono" style="rounded=0;whiteSpace=wrap;html=1;strokeColor=#006658;fontColor=#5C5C5C;fillColor=#21C0A5;labelBackgroundColor=none;" parent="WIyWlLk6GJQsqaUBKTNV-1" vertex="1">
          <mxGeometry x="-259" y="900" width="120" height="60" as="geometry" />
        </mxCell>
        <mxCell id="13TzzeObVVfD70_n9w97-23" value="Possui&amp;nbsp;" style="rhombus;whiteSpace=wrap;html=1;shadow=0;fontFamily=Helvetica;fontSize=12;align=center;strokeWidth=1;spacing=6;spacingTop=-4;rounded=0;labelBackgroundColor=none;fillColor=#21C0A5;strokeColor=#006658;fontColor=#5C5C5C;" parent="WIyWlLk6GJQsqaUBKTNV-1" vertex="1">
          <mxGeometry x="-592" y="1000" width="100" height="80" as="geometry" />
        </mxCell>
        <mxCell id="13TzzeObVVfD70_n9w97-25" value="Atendimento" style="rounded=0;whiteSpace=wrap;html=1;strokeColor=#006658;fontColor=#5C5C5C;fillColor=#21C0A5;labelBackgroundColor=none;" parent="WIyWlLk6GJQsqaUBKTNV-1" vertex="1">
          <mxGeometry x="-602" y="660" width="120" height="60" as="geometry" />
        </mxCell>
        <mxCell id="13TzzeObVVfD70_n9w97-26" value="" style="endArrow=none;html=1;rounded=0;entryX=0;entryY=0.5;entryDx=0;entryDy=0;exitX=1;exitY=0.5;exitDx=0;exitDy=0;labelBackgroundColor=none;strokeColor=#006658;fontColor=default;" parent="WIyWlLk6GJQsqaUBKTNV-1" source="13TzzeObVVfD70_n9w97-29" target="7l59M0pH6g9MhCw7kL8R-8" edge="1">
          <mxGeometry width="50" height="50" relative="1" as="geometry">
            <mxPoint x="-450" y="450" as="sourcePoint" />
            <mxPoint x="-270" y="440" as="targetPoint" />
          </mxGeometry>
        </mxCell>
        <mxCell id="13TzzeObVVfD70_n9w97-27" value="" style="endArrow=none;html=1;rounded=0;exitX=1;exitY=0.5;exitDx=0;exitDy=0;entryX=0;entryY=0.5;entryDx=0;entryDy=0;labelBackgroundColor=none;strokeColor=#006658;fontColor=default;" parent="WIyWlLk6GJQsqaUBKTNV-1" source="7l59M0pH6g9MhCw7kL8R-8" target="zAKUYkVe4AKFvkZDwYAf-0" edge="1">
          <mxGeometry width="50" height="50" relative="1" as="geometry">
            <mxPoint x="-320" y="490" as="sourcePoint" />
            <mxPoint x="-270" y="440" as="targetPoint" />
          </mxGeometry>
        </mxCell>
        <mxCell id="13TzzeObVVfD70_n9w97-29" value="Veterinário" style="rounded=0;whiteSpace=wrap;html=1;strokeColor=#006658;fontColor=#5C5C5C;fillColor=#21C0A5;labelBackgroundColor=none;" parent="WIyWlLk6GJQsqaUBKTNV-1" vertex="1">
          <mxGeometry x="-602" y="413" width="120" height="60" as="geometry" />
        </mxCell>
        <mxCell id="sJ96ued-D-GvJgnUoqD4-2" value="Possui&amp;nbsp;" style="rhombus;whiteSpace=wrap;html=1;shadow=0;fontFamily=Helvetica;fontSize=12;align=center;strokeWidth=1;spacing=6;spacingTop=-4;rounded=0;labelBackgroundColor=none;fillColor=#21C0A5;strokeColor=#006658;fontColor=#5C5C5C;" vertex="1" parent="WIyWlLk6GJQsqaUBKTNV-1">
          <mxGeometry x="-592" y="770" width="100" height="80" as="geometry" />
        </mxCell>
        <mxCell id="sJ96ued-D-GvJgnUoqD4-3" value="Possui&amp;nbsp;" style="rhombus;whiteSpace=wrap;html=1;shadow=0;fontFamily=Helvetica;fontSize=12;align=center;strokeWidth=1;spacing=6;spacingTop=-4;rounded=0;labelBackgroundColor=none;fillColor=#21C0A5;strokeColor=#006658;fontColor=#5C5C5C;" vertex="1" parent="WIyWlLk6GJQsqaUBKTNV-1">
          <mxGeometry x="-420" y="890" width="100" height="80" as="geometry" />
        </mxCell>
        <mxCell id="sJ96ued-D-GvJgnUoqD4-6" value="" style="endArrow=none;html=1;rounded=0;exitX=0.5;exitY=0;exitDx=0;exitDy=0;entryX=0;entryY=1;entryDx=0;entryDy=0;labelBackgroundColor=none;strokeColor=#006658;fontColor=default;" edge="1" parent="WIyWlLk6GJQsqaUBKTNV-1" source="13TzzeObVVfD70_n9w97-5" target="7l59M0pH6g9MhCw7kL8R-7">
          <mxGeometry width="50" height="50" relative="1" as="geometry">
            <mxPoint x="-340" y="1100" as="sourcePoint" />
            <mxPoint x="-290" y="1050" as="targetPoint" />
          </mxGeometry>
        </mxCell>
        <mxCell id="sJ96ued-D-GvJgnUoqD4-7" value="" style="endArrow=none;html=1;rounded=0;exitX=1;exitY=1;exitDx=0;exitDy=0;entryX=0.5;entryY=0;entryDx=0;entryDy=0;labelBackgroundColor=none;strokeColor=#006658;fontColor=default;" edge="1" parent="WIyWlLk6GJQsqaUBKTNV-1" source="7l59M0pH6g9MhCw7kL8R-7" target="13TzzeObVVfD70_n9w97-6">
          <mxGeometry width="50" height="50" relative="1" as="geometry">
            <mxPoint x="-340" y="1100" as="sourcePoint" />
            <mxPoint x="-290" y="1050" as="targetPoint" />
          </mxGeometry>
        </mxCell>
        <mxCell id="sJ96ued-D-GvJgnUoqD4-8" value="" style="endArrow=none;html=1;rounded=0;exitX=0.5;exitY=0;exitDx=0;exitDy=0;entryX=0.5;entryY=1;entryDx=0;entryDy=0;labelBackgroundColor=none;strokeColor=#006658;fontColor=default;" edge="1" parent="WIyWlLk6GJQsqaUBKTNV-1" source="13TzzeObVVfD70_n9w97-23" target="7l59M0pH6g9MhCw7kL8R-7">
          <mxGeometry width="50" height="50" relative="1" as="geometry">
            <mxPoint x="-340" y="1100" as="sourcePoint" />
            <mxPoint x="-290" y="1050" as="targetPoint" />
          </mxGeometry>
        </mxCell>
        <mxCell id="sJ96ued-D-GvJgnUoqD4-9" value="" style="endArrow=none;html=1;rounded=0;exitX=0.5;exitY=0;exitDx=0;exitDy=0;entryX=0.5;entryY=1;entryDx=0;entryDy=0;labelBackgroundColor=none;strokeColor=#006658;fontColor=default;" edge="1" parent="WIyWlLk6GJQsqaUBKTNV-1" source="13TzzeObVVfD70_n9w97-16" target="13TzzeObVVfD70_n9w97-23">
          <mxGeometry width="50" height="50" relative="1" as="geometry">
            <mxPoint x="-340" y="1100" as="sourcePoint" />
            <mxPoint x="-290" y="1050" as="targetPoint" />
          </mxGeometry>
        </mxCell>
        <mxCell id="sJ96ued-D-GvJgnUoqD4-10" value="" style="endArrow=none;html=1;rounded=0;exitX=1;exitY=0.5;exitDx=0;exitDy=0;entryX=0;entryY=0.5;entryDx=0;entryDy=0;labelBackgroundColor=none;strokeColor=#006658;fontColor=default;" edge="1" parent="WIyWlLk6GJQsqaUBKTNV-1" source="7l59M0pH6g9MhCw7kL8R-7" target="sJ96ued-D-GvJgnUoqD4-3">
          <mxGeometry width="50" height="50" relative="1" as="geometry">
            <mxPoint x="-340" y="1000" as="sourcePoint" />
            <mxPoint x="-290" y="950" as="targetPoint" />
          </mxGeometry>
        </mxCell>
        <mxCell id="sJ96ued-D-GvJgnUoqD4-11" value="" style="endArrow=none;html=1;rounded=0;exitX=1;exitY=0.5;exitDx=0;exitDy=0;entryX=0;entryY=0.5;entryDx=0;entryDy=0;labelBackgroundColor=none;strokeColor=#006658;fontColor=default;" edge="1" parent="WIyWlLk6GJQsqaUBKTNV-1" source="sJ96ued-D-GvJgnUoqD4-3" target="13TzzeObVVfD70_n9w97-22">
          <mxGeometry width="50" height="50" relative="1" as="geometry">
            <mxPoint x="-340" y="1000" as="sourcePoint" />
            <mxPoint x="-290" y="950" as="targetPoint" />
          </mxGeometry>
        </mxCell>
        <mxCell id="sJ96ued-D-GvJgnUoqD4-12" value="" style="endArrow=none;html=1;rounded=0;exitX=1;exitY=0.5;exitDx=0;exitDy=0;entryX=0;entryY=0.5;entryDx=0;entryDy=0;labelBackgroundColor=none;strokeColor=#006658;fontColor=default;" edge="1" parent="WIyWlLk6GJQsqaUBKTNV-1" source="13TzzeObVVfD70_n9w97-7" target="13TzzeObVVfD70_n9w97-11">
          <mxGeometry width="50" height="50" relative="1" as="geometry">
            <mxPoint x="-810" y="910" as="sourcePoint" />
            <mxPoint x="-760" y="860" as="targetPoint" />
          </mxGeometry>
        </mxCell>
        <mxCell id="sJ96ued-D-GvJgnUoqD4-13" value="" style="endArrow=none;html=1;rounded=0;exitX=1;exitY=0.5;exitDx=0;exitDy=0;entryX=0;entryY=0.5;entryDx=0;entryDy=0;labelBackgroundColor=none;strokeColor=#006658;fontColor=default;" edge="1" parent="WIyWlLk6GJQsqaUBKTNV-1" source="13TzzeObVVfD70_n9w97-11" target="7l59M0pH6g9MhCw7kL8R-7">
          <mxGeometry width="50" height="50" relative="1" as="geometry">
            <mxPoint x="-680" y="1030" as="sourcePoint" />
            <mxPoint x="-630" y="980" as="targetPoint" />
          </mxGeometry>
        </mxCell>
        <mxCell id="sJ96ued-D-GvJgnUoqD4-14" value="" style="endArrow=none;html=1;rounded=0;exitX=0.5;exitY=0;exitDx=0;exitDy=0;entryX=0.5;entryY=1;entryDx=0;entryDy=0;labelBackgroundColor=none;strokeColor=#006658;fontColor=default;" edge="1" parent="WIyWlLk6GJQsqaUBKTNV-1" source="7l59M0pH6g9MhCw7kL8R-7" target="sJ96ued-D-GvJgnUoqD4-2">
          <mxGeometry width="50" height="50" relative="1" as="geometry">
            <mxPoint x="-440" y="900" as="sourcePoint" />
            <mxPoint x="-390" y="850" as="targetPoint" />
          </mxGeometry>
        </mxCell>
        <mxCell id="sJ96ued-D-GvJgnUoqD4-15" value="" style="endArrow=none;html=1;rounded=0;exitX=0.5;exitY=0;exitDx=0;exitDy=0;entryX=0.5;entryY=1;entryDx=0;entryDy=0;labelBackgroundColor=none;strokeColor=#006658;fontColor=default;" edge="1" parent="WIyWlLk6GJQsqaUBKTNV-1" source="sJ96ued-D-GvJgnUoqD4-2" target="13TzzeObVVfD70_n9w97-25">
          <mxGeometry width="50" height="50" relative="1" as="geometry">
            <mxPoint x="-440" y="700" as="sourcePoint" />
            <mxPoint x="-390" y="650" as="targetPoint" />
          </mxGeometry>
        </mxCell>
        <mxCell id="sJ96ued-D-GvJgnUoqD4-17" value="Possui&amp;nbsp;" style="rhombus;whiteSpace=wrap;html=1;shadow=0;fontFamily=Helvetica;fontSize=12;align=center;strokeWidth=1;spacing=6;spacingTop=-4;rounded=0;labelBackgroundColor=none;fillColor=#21C0A5;strokeColor=#006658;fontColor=#5C5C5C;" vertex="1" parent="WIyWlLk6GJQsqaUBKTNV-1">
          <mxGeometry x="-40" y="403" width="100" height="80" as="geometry" />
        </mxCell>
        <mxCell id="sJ96ued-D-GvJgnUoqD4-18" value="Endereço" style="rounded=0;whiteSpace=wrap;html=1;strokeColor=#006658;fontColor=#5C5C5C;fillColor=#21C0A5;labelBackgroundColor=none;" vertex="1" parent="WIyWlLk6GJQsqaUBKTNV-1">
          <mxGeometry x="140" y="413" width="120" height="60" as="geometry" />
        </mxCell>
        <mxCell id="sJ96ued-D-GvJgnUoqD4-19" value="" style="endArrow=none;html=1;rounded=0;exitX=0.5;exitY=0;exitDx=0;exitDy=0;entryX=0.5;entryY=1;entryDx=0;entryDy=0;labelBackgroundColor=none;strokeColor=#006658;fontColor=default;" edge="1" parent="WIyWlLk6GJQsqaUBKTNV-1" source="13TzzeObVVfD70_n9w97-25" target="13TzzeObVVfD70_n9w97-15">
          <mxGeometry width="50" height="50" relative="1" as="geometry">
            <mxPoint x="-320" y="640" as="sourcePoint" />
            <mxPoint x="-270" y="590" as="targetPoint" />
          </mxGeometry>
        </mxCell>
        <mxCell id="sJ96ued-D-GvJgnUoqD4-20" value="" style="endArrow=none;html=1;rounded=0;exitX=0.5;exitY=0;exitDx=0;exitDy=0;entryX=0.5;entryY=1;entryDx=0;entryDy=0;labelBackgroundColor=none;strokeColor=#006658;fontColor=default;" edge="1" parent="WIyWlLk6GJQsqaUBKTNV-1" source="13TzzeObVVfD70_n9w97-15" target="13TzzeObVVfD70_n9w97-29">
          <mxGeometry width="50" height="50" relative="1" as="geometry">
            <mxPoint x="-320" y="640" as="sourcePoint" />
            <mxPoint x="-270" y="590" as="targetPoint" />
          </mxGeometry>
        </mxCell>
        <mxCell id="sJ96ued-D-GvJgnUoqD4-21" value="" style="endArrow=none;html=1;rounded=0;exitX=1;exitY=0.5;exitDx=0;exitDy=0;entryX=0;entryY=0.5;entryDx=0;entryDy=0;labelBackgroundColor=none;strokeColor=#006658;fontColor=default;" edge="1" parent="WIyWlLk6GJQsqaUBKTNV-1" source="zAKUYkVe4AKFvkZDwYAf-0" target="sJ96ued-D-GvJgnUoqD4-17">
          <mxGeometry width="50" height="50" relative="1" as="geometry">
            <mxPoint x="-10" y="570" as="sourcePoint" />
            <mxPoint x="40" y="520" as="targetPoint" />
          </mxGeometry>
        </mxCell>
        <mxCell id="sJ96ued-D-GvJgnUoqD4-22" value="" style="endArrow=none;html=1;rounded=0;entryX=1;entryY=0.5;entryDx=0;entryDy=0;exitX=0;exitY=0.5;exitDx=0;exitDy=0;labelBackgroundColor=none;strokeColor=#006658;fontColor=default;" edge="1" parent="WIyWlLk6GJQsqaUBKTNV-1" source="sJ96ued-D-GvJgnUoqD4-18" target="sJ96ued-D-GvJgnUoqD4-17">
          <mxGeometry width="50" height="50" relative="1" as="geometry">
            <mxPoint x="-10" y="570" as="sourcePoint" />
            <mxPoint x="40" y="520" as="targetPoint" />
          </mxGeometry>
        </mxCell>
        <mxCell id="sJ96ued-D-GvJgnUoqD4-23" value="N" style="text;html=1;align=center;verticalAlign=middle;resizable=0;points=[];autosize=1;strokeColor=none;fillColor=none;fontColor=#5C5C5C;labelBackgroundColor=none;" vertex="1" parent="WIyWlLk6GJQsqaUBKTNV-1">
          <mxGeometry x="-482" y="413" width="30" height="30" as="geometry" />
        </mxCell>
        <mxCell id="sJ96ued-D-GvJgnUoqD4-24" value="1" style="text;html=1;align=center;verticalAlign=middle;resizable=0;points=[];autosize=1;strokeColor=none;fillColor=none;fontColor=#5C5C5C;labelBackgroundColor=none;" vertex="1" parent="WIyWlLk6GJQsqaUBKTNV-1">
          <mxGeometry x="-270" y="413" width="30" height="30" as="geometry" />
        </mxCell>
        <mxCell id="sJ96ued-D-GvJgnUoqD4-25" value="N" style="text;html=1;align=center;verticalAlign=middle;resizable=0;points=[];autosize=1;strokeColor=none;fillColor=none;fontColor=#5C5C5C;labelBackgroundColor=none;" vertex="1" parent="WIyWlLk6GJQsqaUBKTNV-1">
          <mxGeometry x="-120" y="413" width="30" height="30" as="geometry" />
        </mxCell>
        <mxCell id="sJ96ued-D-GvJgnUoqD4-26" value="1" style="text;html=1;align=center;verticalAlign=middle;resizable=0;points=[];autosize=1;strokeColor=none;fillColor=none;fontColor=#5C5C5C;labelBackgroundColor=none;" vertex="1" parent="WIyWlLk6GJQsqaUBKTNV-1">
          <mxGeometry x="-512" y="473" width="30" height="30" as="geometry" />
        </mxCell>
        <mxCell id="sJ96ued-D-GvJgnUoqD4-27" value="N" style="text;html=1;align=center;verticalAlign=middle;resizable=0;points=[];autosize=1;strokeColor=none;fillColor=none;fontColor=#5C5C5C;labelBackgroundColor=none;" vertex="1" parent="WIyWlLk6GJQsqaUBKTNV-1">
          <mxGeometry x="-512" y="630" width="30" height="30" as="geometry" />
        </mxCell>
        <mxCell id="sJ96ued-D-GvJgnUoqD4-28" value="N" style="text;html=1;align=center;verticalAlign=middle;resizable=0;points=[];autosize=1;strokeColor=none;fillColor=none;fontColor=#5C5C5C;labelBackgroundColor=none;" vertex="1" parent="WIyWlLk6GJQsqaUBKTNV-1">
          <mxGeometry x="-512" y="720" width="30" height="30" as="geometry" />
        </mxCell>
        <mxCell id="sJ96ued-D-GvJgnUoqD4-29" value="1" style="text;html=1;align=center;verticalAlign=middle;resizable=0;points=[];autosize=1;strokeColor=none;fillColor=none;fontColor=#5C5C5C;labelBackgroundColor=none;" vertex="1" parent="WIyWlLk6GJQsqaUBKTNV-1">
          <mxGeometry x="-512" y="870" width="30" height="30" as="geometry" />
        </mxCell>
        <mxCell id="sJ96ued-D-GvJgnUoqD4-30" value="1" style="text;html=1;align=center;verticalAlign=middle;resizable=0;points=[];autosize=1;strokeColor=none;fillColor=none;fontColor=#5C5C5C;labelBackgroundColor=none;" vertex="1" parent="WIyWlLk6GJQsqaUBKTNV-1">
          <mxGeometry x="-289" y="930" width="30" height="30" as="geometry" />
        </mxCell>
        <mxCell id="sJ96ued-D-GvJgnUoqD4-31" value="N" style="text;html=1;align=center;verticalAlign=middle;resizable=0;points=[];autosize=1;strokeColor=none;fillColor=none;fontColor=#5C5C5C;labelBackgroundColor=none;" vertex="1" parent="WIyWlLk6GJQsqaUBKTNV-1">
          <mxGeometry x="-482" y="930" width="30" height="30" as="geometry" />
        </mxCell>
        <mxCell id="sJ96ued-D-GvJgnUoqD4-32" value="N" style="text;html=1;align=center;verticalAlign=middle;resizable=0;points=[];autosize=1;strokeColor=none;fillColor=none;fontColor=#5C5C5C;labelBackgroundColor=none;" vertex="1" parent="WIyWlLk6GJQsqaUBKTNV-1">
          <mxGeometry x="-632" y="930" width="30" height="30" as="geometry" />
        </mxCell>
        <mxCell id="sJ96ued-D-GvJgnUoqD4-33" value="1" style="text;html=1;align=center;verticalAlign=middle;resizable=0;points=[];autosize=1;strokeColor=none;fillColor=none;fontColor=#5C5C5C;labelBackgroundColor=none;" vertex="1" parent="WIyWlLk6GJQsqaUBKTNV-1">
          <mxGeometry x="-850" y="930" width="30" height="30" as="geometry" />
        </mxCell>
        <mxCell id="sJ96ued-D-GvJgnUoqD4-34" value="N" style="text;html=1;align=center;verticalAlign=middle;resizable=0;points=[];autosize=1;strokeColor=none;fillColor=none;fontColor=#5C5C5C;labelBackgroundColor=none;" vertex="1" parent="WIyWlLk6GJQsqaUBKTNV-1">
          <mxGeometry x="-512" y="960" width="30" height="30" as="geometry" />
        </mxCell>
        <mxCell id="sJ96ued-D-GvJgnUoqD4-35" value="1" style="text;html=1;align=center;verticalAlign=middle;resizable=0;points=[];autosize=1;strokeColor=none;fillColor=none;fontColor=#5C5C5C;labelBackgroundColor=none;" vertex="1" parent="WIyWlLk6GJQsqaUBKTNV-1">
          <mxGeometry x="-512" y="1090" width="30" height="30" as="geometry" />
        </mxCell>
      </root>
    </mxGraphModel>
  </diagram>
</mxfile>
